P2
# 1
16 16
255
255 255 255 255 255 255 255 127   0   0   0 127 255 255 255 255
255 255 255 255 255   0   0   0   0   0   0   0   0 255 255 255
255 255 255 255 255   0   0   0   0   0   0   0   0 255 255 255
255 255 255 255 127   0   0   0   0   0   0   0 255 255 255 255
255 255 255 255   0   0   0   0   0   0   0 255 255 255 255 255
255 255 255 255   0   0   0   0   0   0   0 255 255 255 255 255
255 255 255 255   0   0   0   0   0   0 255 255 255 255 255 255
255 255 255 255   0   0   0   0   0   0 255 255 255 255 255 255
255 255 255 255   0   0   0   0   0   0 255 255 255 255 255 255
255 255 255 255   0   0   0   0   0   0 255 255 255 255 255 255
255 255 255 255   0   0   0   0   0   0 255 255 255 255 255 255
255 255 255   0   0   0   0   0   0   0 255 255 255 255 255 255
255 255 255 255   0   0   0   0   0   0 255 255 255 255 255 255
255 255 255 255   0   0   0   0   0   0 255 255 255 255 255 255
255 255 255 255 127   0   0   0   0   0 255 255 255 255 255 255
255 255 255 255 255 255 127   0   0 127 255 255 255 255 255 255
