P2
# 8
16 16
255
255 255 255 255 255 191   0   0   0 127 255 255 255 255 255 255
255 255 255 255 191   0   0   0   0   0  63 255 255 255 255 255
255 255 255 255 191   0  63 127 127  63   0 191 255 255 255 255
255 255 255 255 255   0 255 255 255 255   0 127 255 255 255 255
255 255 255 255 255 191 255 255 255 191  63  63 255 255 255 255
255 255 255 255 255 127 127 255 255 127   0 127 255 255 255 255
255 255 255 191  63   0   0 127 191   0  63 255 255 255 255 255
255 255 255 191   0   0   0   0   0  63 255 255 255 255 255 255
255 255 255 255 255 127  63   0   0   0 191 255 255 255 255 255
255 255 255 255 255 191   0   0 191  63   0  63 255 255 255 255
255 255 255 255 191  63  63 191 255 255  63   0 255 255 255 255
255 255 255 255 127   0 127 255 255 255 255   0 127 255 255 255
255 255 255 255  63   0 191 255 255 255 255  63  63 255 255 255
255 255 255 255 127   0 127 255 255 255 127   0   0 255 255 255
255 255 255 255 255   0   0 127 127   0   0   0  63 191 255 255
255 255 255 255 255 191   0   0   0   0  63 191 255 255 255 255
