<?xml version="1.0" encoding="utf-8"?>
<!-- Generator: Adobe Illustrator 18.0.0, SVG Export Plug-In . SVG Version: 6.00 Build 0)  -->
<!DOCTYPE svg PUBLIC "-//W3C//DTD SVG 1.1//EN" "http://www.w3.org/Graphics/SVG/1.1/DTD/svg11.dtd">
<svg version="1.1" id="Layer_1" xmlns="http://www.w3.org/2000/svg" xmlns:xlink="http://www.w3.org/1999/xlink" x="0px" y="0px"
	 viewBox="0 0 500 500" enable-background="new 0 0 500 500" xml:space="preserve">
<circle fill="#26AAE2" cx="250" cy="250" r="250"/>
<g>
	<g>
		<path fill="#FFFFFF" d="M304.4,88.4c0.7,0,1.4,0,2.1,0c1.7,20.7-6.2,36.1-15.8,47.3c-9.4,11.1-22.3,21.9-43.1,20.3
			c-1.4-20.4,6.5-34.7,16.1-45.9C272.5,99.7,288.8,90.4,304.4,88.4z"/>
		<path fill="#FFFFFF" d="M367.5,303.6c0,0.2,0,0.4,0,0.6c-5.9,17.7-14.2,33-24.4,47.1c-9.3,12.8-20.7,30.1-41.1,30.1
			c-17.6,0-29.3-11.3-47.3-11.6c-19.1-0.3-29.6,9.5-47,11.9c-2,0-4,0-5.9,0c-12.8-1.9-23.2-12-30.7-21.1
			c-22.2-27-39.4-61.9-42.6-106.6c0-4.4,0-8.7,0-13.1c1.4-32,16.9-57.9,37.5-70.5c10.9-6.7,25.9-12.4,42.5-9.9
			c7.1,1.1,14.4,3.6,20.8,6c6.1,2.3,13.6,6.5,20.8,6.2c4.9-0.1,9.7-2.7,14.6-4.5c14.4-5.2,28.5-11.1,47-8.3
			c22.3,3.4,38.2,13.3,47.9,28.6c-18.9,12-33.8,30.1-31.3,61C330.8,277.5,347.1,293.9,367.5,303.6z"/>
	</g>
</g>
</svg>
